<svg xmlns="http://www.w3.org/2000/svg" width="1200" height="900" viewBox="0 0 1200 900"><rect width="1200" height="900" fill="#f7fafc"/><text x="70" y="78" font-family="Arial" font-size="34" font-weight="700" fill="#102a43">同一次调用的四种结果</text><g font-family="Arial" font-size="26"><rect x="430" y="150" width="340" height="120" rx="16" fill="#e8f1fb" stroke="#8bbcff"/><text x="520" y="220" fill="#1765ad">CommandExecution</text><rect x="100" y="430" width="220" height="130" rx="16" fill="#e6f4f0" stroke="#9cd5c5"/><text x="170" y="505" fill="#14685b">完成</text><rect x="355" y="430" width="220" height="130" rx="16" fill="#fff4dd" stroke="#f1c97b"/><text x="425" y="505" fill="#9a5b00">失败</text><rect x="630" y="430" width="220" height="130" rx="16" fill="#fff0f2" stroke="#f2a5b2"/><text x="685" y="505" fill="#b21f45">拒绝</text><rect x="905" y="430" width="220" height="130" rx="16" fill="#edf0f5" stroke="#aab7c5"/><text x="950" y="505" fill="#526b84">超时</text></g><path d="M600 270v100M600 370H210v60M600 370h190v60M600 370h415v60" fill="none" stroke="#6b879f" stroke-width="4" marker-end="url(#d)"/><defs><marker id="d" markerWidth="10" markerHeight="10" refX="5" refY="5" orient="auto"><path d="M0 0l10 5-10 5z" fill="#6b879f"/></marker></defs></svg>
